<svg xmlns="http://www.w3.org/2000/svg" width="200.103" height="40" viewBox="0 0 200.103 40">
    <defs>
        <clipPath id="clip-path">
            <path id="사각형_3" data-name="사각형 3" style="fill:none" d="M0 0h199.103v25.834H0z"/>
        </clipPath>
        <style>
            .cls-3{fill:#fff}
        </style>
    </defs>
    <g id="Logo" transform="translate(.002 9)">
        <g id="그룹_45" data-name="그룹 45">
            <path id="패스_1" data-name="패스 1" class="cls-3" d="M15.209 0v8.691H9.415V0H0v25.348h9.415v-8.69h5.794v8.69h9.414V0z" transform="translate(-.002)"/>
            <path id="패스_2" data-name="패스 2" class="cls-3" d="M53.748 0v25.348h4.707l4.706-8.328V0z" transform="translate(-25.705)"/>
            <path id="패스_3" data-name="패스 3" d="m67.475 32.618-4.707 8.328h16.143v-8.328z" transform="translate(-30.018 -15.599)" style="fill:#00b5ed"/>
            <path id="패스_4" data-name="패스 4" class="cls-3" d="m122.976 0-8.549 9.346V0h-5.584v25.34h5.584v-9.08l2.356-2.393 7.674 11.473h6.843L120.582 9.991 130.46 0z" transform="translate(-52.053)"/>
            <path id="사각형_2" data-name="사각형 2" class="cls-3" transform="translate(81.369)" d="M0 0h5.395v25.34H0z"/>
            <g id="그룹_2" data-name="그룹 2">
                <g id="그룹_1" data-name="그룹 1" style="clip-path:url(#clip-path)">
                    <path id="패스_5" data-name="패스 5" class="cls-3" d="M178.349 23.7c.342 2.507 1.824 3.875 4.141 3.875a3.44 3.44 0 0 0 3.192-1.633h5.471c-1.026 3.571-4.445 5.851-8.814 5.851-5.661 0-9.422-3.875-9.422-9.65 0-5.736 3.837-9.688 9.384-9.688a8.285 8.285 0 0 1 8.168 5.395 14.881 14.881 0 0 1 .912 5.851zm7.484-3.8a3.33 3.33 0 0 0-3.571-3.343 3.707 3.707 0 0 0-3.875 3.343z" transform="translate(-82.693 -5.954)"/>
                    <path id="패스_6" data-name="패스 6" class="cls-3" d="M219.835 12.944v2.2c1.71-2.09 2.849-2.7 5.053-2.7a5.286 5.286 0 0 1 5.091 2.964c1.975-2.242 3.344-2.964 5.7-2.964a6.191 6.191 0 0 1 4.559 1.71c1.026 1.1 1.443 2.583 1.443 4.939v12.2h-5.395V21.188c0-2.811-.836-4.065-2.7-4.065-1.9 0-2.735 1.254-2.735 4.065v10.106h-5.395V21.188c0-2.811-.836-4.065-2.736-4.065-1.862 0-2.735 1.254-2.735 4.065v10.106h-5.4v-18.35z" transform="translate(-102.623 -5.954)"/>
                    <path id="패스_7" data-name="패스 7" class="cls-3" d="M292.059 22.252c0 5.546-4.1 9.536-9.763 9.536a9.306 9.306 0 0 1-9.726-9.688 9.3 9.3 0 0 1 9.726-9.65c5.813 0 9.763 3.951 9.763 9.8M278 22.1c0 3.457 1.558 5.395 4.331 5.395 2.7 0 4.293-1.937 4.293-5.281 0-3.533-1.519-5.471-4.331-5.471-2.736 0-4.293 1.937-4.293 5.357" transform="translate(-130.349 -5.954)"/>
                    <path id="패스_8" data-name="패스 8" class="cls-3" d="M317.228 31.747 310.655 13.4h5.661l2.052 7.028c.38 1.292.836 3.039 1.444 5.281.418-2.052.874-4.179 1.14-5.281l1.861-7.028h5.775l-6.231 18.35z" transform="translate(-148.563 -6.407)"/>
                    <path id="패스_9" data-name="패스 9" class="cls-3" d="M351.632 23.7c.342 2.507 1.824 3.875 4.141 3.875a3.44 3.44 0 0 0 3.192-1.633h5.471c-1.026 3.571-4.445 5.851-8.814 5.851-5.661 0-9.422-3.875-9.422-9.65 0-5.736 3.837-9.688 9.384-9.688a8.285 8.285 0 0 1 8.168 5.395 14.881 14.881 0 0 1 .912 5.851zm7.484-3.8a3.33 3.33 0 0 0-3.571-3.343 3.707 3.707 0 0 0-3.875 3.343z" transform="translate(-165.561 -5.954)"/>
                </g>
            </g>
        </g>
    </g>
</svg>
