<?xml version="1.0" encoding="UTF-8"?>
<svg id="design" xmlns="http://www.w3.org/2000/svg" viewBox="0 0 217.29 126.68">
  <defs>
    <style>
      .cls-1 {
        fill: #fff;
      }

      .cls-2 {
        fill: #878787;
      }
    </style>
  </defs>
  <g>
    <g>
      <path class="cls-1" d="M38.46,61.68c-13.09,0-23.74-10.65-23.74-23.74s10.65-23.74,23.74-23.74,23.74,10.65,23.74,23.74-10.65,23.74-23.74,23.74ZM38.46,16.07c-12.07,0-21.88,9.82-21.88,21.88s9.82,21.88,21.88,21.88,21.88-9.82,21.88-21.88-9.82-21.88-21.88-21.88Z"/>
      <path class="cls-1" d="M38.46,56.98c-10.5,0-19.03-8.54-19.03-19.03s8.54-19.03,19.03-19.03,19.03,8.54,19.03,19.03-8.54,19.03-19.03,19.03ZM38.46,20.77c-9.47,0-17.18,7.71-17.18,17.18s7.71,17.18,17.18,17.18,17.18-7.71,17.18-17.18-7.71-17.18-17.18-17.18Z"/>
      <path class="cls-1" d="M38.46,52.28c-7.9,0-14.33-6.43-14.33-14.33s6.43-14.33,14.33-14.33,14.33,6.43,14.33,14.33-6.43,14.33-14.33,14.33ZM38.46,25.47c-6.88,0-12.48,5.6-12.48,12.48s5.6,12.48,12.48,12.48,12.48-5.6,12.48-12.48-5.6-12.48-12.48-12.48Z"/>
      <path class="cls-1" d="M38.46,47.58c-5.31,0-9.63-4.32-9.63-9.63s4.32-9.63,9.63-9.63,9.63,4.32,9.63,9.63-4.32,9.63-9.63,9.63ZM38.46,30.17c-4.29,0-7.78,3.49-7.78,7.78s3.49,7.78,7.78,7.78,7.77-3.49,7.77-7.78-3.49-7.78-7.77-7.78Z"/>
      <path class="cls-1" d="M38.46,42.87c-2.72,0-4.93-2.21-4.93-4.93s2.21-4.93,4.93-4.93,4.93,2.21,4.93,4.93-2.21,4.93-4.93,4.93ZM38.46,34.88c-1.69,0-3.07,1.38-3.07,3.07s1.38,3.07,3.07,3.07,3.07-1.38,3.07-3.07-1.38-3.07-3.07-3.07Z"/>
    </g>
    <polygon class="cls-1" points="107.03 62.15 87.68 62.15 104.44 52.47 103.51 50.87 86.75 60.54 96.43 43.78 94.82 42.86 85.15 59.61 85.15 40.26 83.29 40.26 83.29 59.61 73.62 42.86 72.01 43.78 81.69 60.54 64.93 50.87 64 52.47 80.76 62.15 61.41 62.15 61.41 64 80.76 64 64 73.68 64.93 75.28 81.69 65.61 72.01 82.36 73.62 83.29 83.29 66.53 83.29 85.88 85.15 85.88 85.15 66.53 94.82 83.29 96.43 82.36 86.75 65.61 103.51 75.28 104.44 73.68 87.68 64 107.03 64 107.03 62.15"/>
    <g>
      <circle class="cls-2" cx="38.46" cy="66.82" r="1.43"/>
      <circle class="cls-2" cx="38.46" cy="71.87" r="1.43"/>
      <circle class="cls-2" cx="32.87" cy="72.85" r="1.43"/>
      <circle class="cls-2" cx="27.96" cy="75.69" r="1.43"/>
      <circle class="cls-2" cx="24.32" cy="80.03" r="1.43"/>
      <circle class="cls-2" cx="22.38" cy="85.36" r="1.43"/>
      <circle class="cls-2" cx="22.38" cy="91.03" r="1.43"/>
      <circle class="cls-2" cx="24.32" cy="96.37" r="1.43"/>
      <circle class="cls-2" cx="27.96" cy="100.71" r="1.43"/>
      <circle class="cls-2" cx="32.87" cy="103.55" r="1.43"/>
      <circle class="cls-2" cx="38.46" cy="104.53" r="1.43"/>
      <circle class="cls-2" cx="44.05" cy="103.55" r="1.43"/>
      <circle class="cls-2" cx="48.96" cy="100.71" r="1.43"/>
      <circle class="cls-2" cx="52.61" cy="96.37" r="1.43"/>
      <circle class="cls-2" cx="54.55" cy="91.03" r="1.43"/>
      <circle class="cls-2" cx="54.55" cy="85.36" r="1.43"/>
      <circle class="cls-2" cx="52.61" cy="80.03" r="1.43"/>
      <circle class="cls-2" cx="48.96" cy="75.69" r="1.43"/>
      <circle class="cls-2" cx="44.05" cy="72.85" r="1.43"/>
      <circle class="cls-2" cx="38.46" cy="76.91" r="1.43"/>
      <circle class="cls-2" cx="38.46" cy="81.96" r="1.43"/>
      <circle class="cls-2" cx="34.05" cy="83.79" r="1.43"/>
      <circle class="cls-2" cx="32.22" cy="88.2" r="1.43"/>
      <circle class="cls-2" cx="34.05" cy="92.61" r="1.43"/>
      <circle class="cls-2" cx="38.46" cy="94.44" r="1.43"/>
      <circle class="cls-2" cx="42.87" cy="92.61" r="1.43"/>
      <circle class="cls-2" cx="44.7" cy="88.2" r="1.43"/>
      <circle class="cls-2" cx="42.87" cy="83.79" r="1.43"/>
      <circle class="cls-2" cx="32.82" cy="78.42" r="1.43"/>
      <circle class="cls-2" cx="28.69" cy="82.56" r="1.43"/>
      <circle class="cls-2" cx="27.17" cy="88.2" r="1.43"/>
      <circle class="cls-2" cx="28.69" cy="93.84" r="1.43"/>
      <circle class="cls-2" cx="32.82" cy="97.97" r="1.43"/>
      <circle class="cls-2" cx="38.46" cy="99.49" r="1.43"/>
      <circle class="cls-2" cx="44.1" cy="97.97" r="1.43"/>
      <circle class="cls-2" cx="48.24" cy="93.84" r="1.43"/>
      <circle class="cls-2" cx="49.75" cy="88.2" r="1.43"/>
      <circle class="cls-2" cx="48.24" cy="82.56" r="1.43"/>
      <circle class="cls-2" cx="44.1" cy="78.42" r="1.43"/>
      <circle class="cls-2" cx="32.93" cy="67.55" r="1.43"/>
      <circle class="cls-2" cx="27.77" cy="69.68" r="1.43"/>
      <circle class="cls-2" cx="23.34" cy="73.08" r="1.43"/>
      <circle class="cls-2" cx="19.95" cy="77.51" r="1.43"/>
      <circle class="cls-2" cx="17.81" cy="82.67" r="1.43"/>
      <circle class="cls-2" cx="17.08" cy="88.2" r="1.43"/>
      <circle class="cls-2" cx="17.81" cy="93.73" r="1.43"/>
      <circle class="cls-2" cx="19.95" cy="98.89" r="1.43"/>
      <circle class="cls-2" cx="23.34" cy="103.32" r="1.43"/>
      <circle class="cls-2" cx="27.77" cy="106.71" r="1.43"/>
      <circle class="cls-2" cx="32.93" cy="108.85" r="1.43"/>
      <circle class="cls-2" cx="38.46" cy="109.58" r="1.43"/>
      <circle class="cls-2" cx="43.99" cy="108.85" r="1.43"/>
      <circle class="cls-2" cx="49.15" cy="106.71" r="1.43"/>
      <circle class="cls-2" cx="53.58" cy="103.32" r="1.43"/>
      <circle class="cls-2" cx="56.98" cy="98.89" r="1.43"/>
      <circle class="cls-2" cx="59.11" cy="93.73" r="1.43"/>
      <circle class="cls-2" cx="59.84" cy="88.2" r="1.43"/>
      <circle class="cls-2" cx="59.11" cy="82.67" r="1.43"/>
      <circle class="cls-2" cx="56.98" cy="77.51" r="1.43"/>
      <circle class="cls-2" cx="53.58" cy="73.08" r="1.43"/>
      <circle class="cls-2" cx="49.15" cy="69.68" r="1.43"/>
      <circle class="cls-2" cx="43.99" cy="67.55" r="1.43"/>
      <circle class="cls-2" cx="38.46" cy="66.82" r="1.43"/>
      <circle class="cls-2" cx="38.46" cy="71.87" r="1.43"/>
      <circle class="cls-2" cx="32.87" cy="72.85" r="1.43"/>
      <circle class="cls-2" cx="27.96" cy="75.69" r="1.43"/>
      <circle class="cls-2" cx="24.32" cy="80.03" r="1.43"/>
      <circle class="cls-2" cx="22.38" cy="85.36" r="1.43"/>
      <circle class="cls-2" cx="22.38" cy="91.03" r="1.43"/>
      <circle class="cls-2" cx="24.32" cy="96.37" r="1.43"/>
      <circle class="cls-2" cx="27.96" cy="100.71" r="1.43"/>
      <circle class="cls-2" cx="32.87" cy="103.55" r="1.43"/>
      <circle class="cls-2" cx="38.46" cy="104.53" r="1.43"/>
      <circle class="cls-2" cx="44.05" cy="103.55" r="1.43"/>
      <circle class="cls-2" cx="48.96" cy="100.71" r="1.43"/>
      <circle class="cls-2" cx="52.61" cy="96.37" r="1.43"/>
      <circle class="cls-2" cx="54.55" cy="91.03" r="1.43"/>
      <circle class="cls-2" cx="54.55" cy="85.36" r="1.43"/>
      <circle class="cls-2" cx="52.61" cy="80.03" r="1.43"/>
      <circle class="cls-2" cx="48.96" cy="75.69" r="1.43"/>
      <circle class="cls-2" cx="44.05" cy="72.85" r="1.43"/>
      <circle class="cls-2" cx="38.46" cy="76.91" r="1.43"/>
      <circle class="cls-2" cx="38.46" cy="81.96" r="1.43"/>
      <circle class="cls-2" cx="34.05" cy="83.79" r="1.43"/>
      <circle class="cls-2" cx="32.22" cy="88.2" r="1.43"/>
      <circle class="cls-2" cx="34.05" cy="92.61" r="1.43"/>
      <circle class="cls-2" cx="38.46" cy="94.44" r="1.43"/>
      <circle class="cls-2" cx="42.87" cy="92.61" r="1.43"/>
      <circle class="cls-2" cx="44.7" cy="88.2" r="1.43"/>
      <circle class="cls-2" cx="42.87" cy="83.79" r="1.43"/>
      <circle class="cls-2" cx="32.82" cy="78.42" r="1.43"/>
      <circle class="cls-2" cx="28.69" cy="82.56" r="1.43"/>
      <circle class="cls-2" cx="27.17" cy="88.2" r="1.43"/>
      <circle class="cls-2" cx="28.69" cy="93.84" r="1.43"/>
      <circle class="cls-2" cx="32.82" cy="97.97" r="1.43"/>
      <circle class="cls-2" cx="38.46" cy="99.49" r="1.43"/>
      <circle class="cls-2" cx="44.1" cy="97.97" r="1.43"/>
      <circle class="cls-2" cx="48.24" cy="93.84" r="1.43"/>
      <circle class="cls-2" cx="49.75" cy="88.2" r="1.43"/>
      <circle class="cls-2" cx="48.24" cy="82.56" r="1.43"/>
      <circle class="cls-2" cx="44.1" cy="78.42" r="1.43"/>
      <circle class="cls-2" cx="32.93" cy="67.55" r="1.43"/>
      <circle class="cls-2" cx="27.77" cy="69.68" r="1.43"/>
      <circle class="cls-2" cx="23.34" cy="73.08" r="1.43"/>
      <circle class="cls-2" cx="19.95" cy="77.51" r="1.43"/>
      <circle class="cls-2" cx="17.81" cy="82.67" r="1.43"/>
      <circle class="cls-2" cx="17.08" cy="88.2" r="1.43"/>
      <circle class="cls-2" cx="17.81" cy="93.73" r="1.43"/>
      <circle class="cls-2" cx="19.95" cy="98.89" r="1.43"/>
      <circle class="cls-2" cx="23.34" cy="103.32" r="1.43"/>
      <circle class="cls-2" cx="27.77" cy="106.71" r="1.43"/>
      <circle class="cls-2" cx="32.93" cy="108.85" r="1.43"/>
      <circle class="cls-2" cx="38.46" cy="109.58" r="1.43"/>
      <circle class="cls-2" cx="43.99" cy="108.85" r="1.43"/>
      <circle class="cls-2" cx="49.15" cy="106.71" r="1.43"/>
      <circle class="cls-2" cx="53.58" cy="103.32" r="1.43"/>
      <circle class="cls-2" cx="56.98" cy="98.89" r="1.43"/>
      <circle class="cls-2" cx="59.11" cy="93.73" r="1.43"/>
      <circle class="cls-2" cx="59.84" cy="88.2" r="1.43"/>
      <circle class="cls-2" cx="59.11" cy="82.67" r="1.43"/>
      <circle class="cls-2" cx="56.98" cy="77.51" r="1.43"/>
      <circle class="cls-2" cx="53.58" cy="73.08" r="1.43"/>
      <circle class="cls-2" cx="49.15" cy="69.68" r="1.43"/>
      <circle class="cls-2" cx="43.99" cy="67.55" r="1.43"/>
    </g>
  </g>
  <g>
    <path class="cls-2" d="M133.16,80.63h-1.73v-.82c1.42-.05,1.96-.42,2.07-1.57h1.03v5.81h-1.37v-3.42Z"/>
    <path class="cls-2" d="M135.97,86.08l.12-.86c.47.26,1.04.4,1.62.4,1.76,0,2.83-1.22,2.87-3.37h-.06c-.36.64-1.1,1.1-2.03,1.1-1.31,0-2.46-.94-2.45-2.52,0-1.64,1.26-2.77,2.87-2.77,1.24,0,2.16.64,2.67,1.73.67,1.42.59,3.48-.22,4.87-.7,1.19-1.89,1.98-3.43,1.98-.77,0-1.43-.23-1.95-.58ZM140.48,80.79v-.09c0-.94-.56-1.69-1.48-1.7-.87,0-1.51.66-1.51,1.67s.61,1.65,1.47,1.65,1.52-.65,1.52-1.53Z"/>
    <path class="cls-2" d="M146.87,84.05h-4.04v-.97l4.19-4.84h1.16v4.57h1.81v1.24h-1.81v2.45h-1.31v-2.45ZM146.87,82.81v-3.01h-.07l-2.55,2.95v.06h2.62Z"/>
    <path class="cls-2" d="M150.95,82.28c-.56-1.37-.45-3.38.38-4.74.69-1.14,1.93-1.92,3.38-1.92.71,0,1.38.2,1.92.55l-.12.86c-.44-.24-.98-.39-1.58-.39-1.79,0-2.83,1.22-2.9,3.26h.07c.37-.66,1.1-1.14,2.06-1.14,1.35,0,2.49.96,2.5,2.58,0,1.71-1.31,2.87-2.93,2.87-1.35,0-2.31-.8-2.78-1.92ZM155.19,81.51c0-1.04-.61-1.71-1.52-1.73-.82,0-1.54.64-1.53,1.6v.09c0,1,.58,1.78,1.51,1.78s1.54-.7,1.54-1.74Z"/>
    <path class="cls-2" d="M163.76,80.89h-5.14v-.96h5.14v.96Z"/>
    <path class="cls-2" d="M165.69,83.1l1.75-1.24c.8-.56,1.16-1,1.16-1.59,0-.7-.59-1.08-1.33-1.09-.61,0-1.08.23-1.43.51l-.2-.76c.45-.47,1.16-.86,2.09-.86,1.32,0,2.27.76,2.28,1.86,0,.93-.6,1.62-1.62,2.24l-.91.58v.06h2.57v1.22h-4.37v-.94Z"/>
    <path class="cls-2" d="M171.22,81.13c0-1.79,1.26-3.05,2.99-3.05s2.96,1.25,2.98,3.05c0,1.8-1.27,3.07-2.98,3.07s-3-1.26-2.99-3.07ZM175.73,81.13c0-1.33-.6-2.12-1.52-2.12s-1.54.78-1.53,2.12c0,1.33.58,2.14,1.53,2.14s1.52-.81,1.52-2.14Z"/>
    <path class="cls-2" d="M178.26,83.1l1.75-1.24c.8-.56,1.16-1,1.16-1.59,0-.7-.59-1.08-1.33-1.09-.61,0-1.08.23-1.43.51l-.2-.76c.45-.47,1.16-.86,2.09-.86,1.32,0,2.27.76,2.28,1.86,0,.93-.6,1.62-1.62,2.24l-.91.58v.06h2.57v1.22h-4.37v-.94Z"/>
    <path class="cls-2" d="M184.13,82.28c-.56-1.37-.45-3.38.38-4.74.69-1.14,1.93-1.92,3.38-1.92.71,0,1.38.2,1.92.55l-.12.86c-.44-.24-.98-.39-1.58-.39-1.79,0-2.83,1.22-2.9,3.26h.07c.37-.66,1.1-1.14,2.06-1.14,1.35,0,2.49.96,2.5,2.58,0,1.71-1.31,2.87-2.93,2.87-1.35,0-2.31-.8-2.78-1.92ZM188.37,81.51c0-1.04-.61-1.71-1.52-1.73-.82,0-1.54.64-1.53,1.6v.09c0,1,.58,1.78,1.51,1.78s1.54-.7,1.54-1.74Z"/>
  </g>
  <g>
    <path class="cls-1" d="M199.68,64.77h1.58v-8.93h-1.58v1.33h-3.13v1.2h3.13v1.13h-3.13v1.19h3.13v4.08ZM190.96,63.41h1.64c2.17,0,3.86-.13,5.3-.42l-.19-1.33c-1.45.28-3.6.35-5.17.34v-5.44h-1.58v6.86ZM192.72,68.91h8.81v-1.38h-7.23v-2.87h-1.58v4.24ZM178.26,62.05c1.81-.38,3.51-1.05,4.76-2.68,1.04,1.54,2.99,2.33,4.74,2.63l.35-1.35c-1.54-.35-4.41-1.51-4.27-2.96h3.64v-1.32h-8.96v1.32h3.64c.16,1-2.08,2.68-4.27,3.01l.37,1.33ZM182.22,68.81h1.58v-4.19h5.2v-1.35h-11.97v1.35h5.2v4.19ZM169.14,65.97c-2.24,0-3.69-1.52-3.69-3.56s1.45-3.54,3.69-3.54,3.69,1.52,3.69,3.54-1.45,3.56-3.69,3.56ZM169.14,67.33c3.04,0,5.36-2.3,5.36-4.92,0-2.8-2.31-4.87-5.36-4.87s-5.36,2.08-5.36,4.87c0,2.62,2.31,4.92,5.36,4.92ZM157.4,61.01c-1.84,0-3.04-1.33-3.04-3.12s1.2-3.12,3.04-3.12,3.04,1.33,3.04,3.12-1.19,3.12-3.04,3.12ZM157.4,69.79c-2.24,0-3.7-1.52-3.7-3.54s1.46-3.56,3.7-3.56,3.7,1.52,3.7,3.56-1.46,3.54-3.7,3.54ZM143.79,64.17c.35-.98.59-2.52.59-4.27v-3.16h-9.44v1.38h7.84v1.86c0,1.42-.23,2.88-.51,3.92l1.52.28ZM133.64,67.32h11.97v-1.35h-4.8v-4.16h-1.58v4.16h-1.74v-4.16h-1.58v4.16h-2.27v1.35ZM130.05,68.72h1.52v-12.88h-1.52v4.79h-1.81v-4.58h-1.52v12.28h1.52v-6.35h1.81v6.75ZM120.74,66.45c3.28-1.96,4.58-3.86,4.58-7.2v-2.52h-4.93v1.38h3.35v1.45c0,2.14-.88,3.89-3.79,5.53l.79,1.36ZM157.4,71.15c3.13,0,5.37-2.3,5.37-4.9,0-2-1.39-3.73-3.38-4.45v-.13c1.61-.82,2.75-2,2.75-3.78,0-2.24-1.74-4.48-4.74-4.48s-4.76,2.24-4.76,4.48c0,1.77,1.16,2.96,2.74,3.79v.12c-1.95.72-3.34,2.44-3.34,4.45,0,2.6,2.2,4.9,5.36,4.9Z"/>
    <g>
      <path class="cls-1" d="M191.78,46.01c.35-.98.59-2.52.59-4.28v-3.17h-9.46v1.38h7.86v1.86c0,1.42-.23,2.89-.51,3.93l1.53.28Z"/>
      <polygon class="cls-1" points="181.6 49.17 193.6 49.17 193.6 47.82 188.79 47.82 188.79 43.65 187.21 43.65 187.21 47.82 185.46 47.82 185.46 43.65 183.88 43.65 183.88 47.82 181.6 47.82 181.6 49.17"/>
      <polygon class="cls-1" points="177.38 45.46 178.96 45.46 178.96 42.49 181.02 42.49 181.02 41.17 178.96 41.17 178.96 37.67 177.38 37.67 177.38 45.46"/>
      <polygon class="cls-1" points="168.59 40.04 175.91 40.04 175.91 38.81 173.27 38.81 173.27 37.39 171.64 37.39 171.64 38.81 168.59 38.81 168.59 40.04"/>
      <path class="cls-1" d="M172.42,40.76c-1.8,0-3.11.89-3.11,2.42s1.31,2.41,3.11,2.41,3.1-.91,3.1-2.41-1.33-2.42-3.1-2.42ZM172.42,44.37c-.95,0-1.53-.5-1.53-1.19s.57-1.2,1.53-1.2,1.51.51,1.51,1.2-.57,1.19-1.51,1.19Z"/>
      <polygon class="cls-1" points="177.38 50.94 178.96 50.94 178.96 46.5 170.69 46.5 170.69 47.79 177.38 47.79 177.38 50.94"/>
      <path class="cls-1" d="M164.91,50.59h1.58v-12.92h-1.58v4.8h-1.69v-4.59h-1.58v7.63c-1.36.37-2.57.5-4.39.53v-6h3.18v-1.35h-4.77v8.73h1.35c1.66,0,3.39-.29,4.62-.72v3.49h1.58v-6.37h1.69v6.78Z"/>
      <path class="cls-1" d="M147.94,37.32c-2.65,0-3.8,1.42-3.8,2.73s1.14,2.79,3.8,2.79,3.8-1.42,3.8-2.79-1.14-2.73-3.8-2.73ZM147.94,41.63c-1.55,0-2.24-.88-2.24-1.55s.69-1.55,2.24-1.55,2.24.88,2.24,1.55-.69,1.55-2.24,1.55Z"/>
      <polygon class="cls-1" points="143.54 50.94 152.43 50.94 152.43 49.73 145.08 49.73 145.08 48.86 152.12 48.86 152.12 45.56 148.73 45.56 148.73 44.69 154.07 44.69 154.07 43.48 141.63 43.48 141.63 44.69 147.15 44.69 147.15 45.56 143.57 45.56 143.57 46.78 150.58 46.78 150.58 47.64 143.54 47.64 143.54 50.94"/>
      <polygon class="cls-1" points="138.13 50.58 139.71 50.58 139.71 37.67 138.13 37.67 138.13 41.53 135.59 41.53 135.59 42.9 138.13 42.9 138.13 50.58"/>
      <path class="cls-1" d="M128.99,47.79c1.32-1.06,2.51-1.94,3.45-3.86.65,1.38,1.98,2.79,3.39,3.65l.75-1.28c-1.66-1.04-3.36-2.88-3.36-5.09v-2.88h-1.58v2.9c0,2.11-1.57,4-3.54,5.4l.89,1.14Z"/>
    </g>
  </g>
</svg>