<svg width="194" height="74" viewBox="0 0 194 74" fill="none" xmlns="http://www.w3.org/2000/svg">
<rect width="74" height="74" fill="#f87171"/>
<path d="M40.8272 18.875V53H34.3584L19.8506 29.3281V53H13.4053V18.875H19.8506L34.4053 42.5703V18.875H40.8272ZM57.3516 53.4688C55.4297 53.4688 53.7031 53.1562 52.1719 52.5312C50.6406 51.9062 49.3359 51.0391 48.2578 49.9297C47.1953 48.8047 46.375 47.5 45.7969 46.0156C45.2344 44.5156 44.9531 42.9062 44.9531 41.1875V40.25C44.9531 38.2969 45.2344 36.5234 45.7969 34.9297C46.3594 33.3203 47.1562 31.9375 48.1875 30.7812C49.2188 29.625 50.4531 28.7344 51.8906 28.1094C53.3281 27.4844 54.9141 27.1719 56.6484 27.1719C58.4453 27.1719 60.0312 27.4766 61.4062 28.0859C62.7812 28.6797 63.9297 29.5234 64.8516 30.6172C65.7734 31.7109 66.4688 33.0234 66.9375 34.5547C67.4062 36.0703 67.6406 37.75 67.6406 39.5938V42.1953H47.7656V37.9297H61.5469V37.4609C61.5156 36.4766 61.3281 35.5781 60.9844 34.7656C60.6406 33.9375 60.1094 33.2812 59.3906 32.7969C58.6719 32.2969 57.7422 32.0469 56.6016 32.0469C55.6797 32.0469 54.875 32.25 54.1875 32.6562C53.5156 33.0469 52.9531 33.6094 52.5 34.3438C52.0625 35.0625 51.7344 35.9219 51.5156 36.9219C51.2969 37.9219 51.1875 39.0312 51.1875 40.25V41.1875C51.1875 42.25 51.3281 43.2344 51.6094 44.1406C51.9062 45.0469 52.3359 45.8359 52.8984 46.5078C53.4766 47.1641 54.1641 47.6797 54.9609 48.0547C55.7734 48.4141 56.6953 48.5938 57.7266 48.5938C59.0234 48.5938 60.1953 48.3438 61.2422 47.8438C62.3047 47.3281 63.2266 46.5703 64.0078 45.5703L67.125 48.8047C66.5938 49.5859 65.875 50.3359 64.9688 51.0547C64.0781 51.7734 63 52.3594 61.7344 52.8125C60.4688 53.25 59.0078 53.4688 57.3516 53.4688Z" fill="#ffffff"/>
<path d="M88.7891 27.6406V32.0938H74.2578V27.6406H88.7891ZM78.1484 21.4062H84.3594V45.6875C84.3594 46.4375 84.4609 47.0156 84.6641 47.4219C84.8672 47.8281 85.1719 48.1016 85.5781 48.2422C85.9844 48.3828 86.4688 48.4531 87.0312 48.4531C87.4375 48.4531 87.8125 48.4297 88.1562 48.3828C88.5 48.3359 88.7891 48.2891 89.0234 48.2422L89.0469 52.8828C88.5312 53.0547 87.9453 53.1953 87.2891 53.3047C86.6484 53.4141 85.9219 53.4688 85.1094 53.4688C83.7188 53.4688 82.5 53.2344 81.4531 52.7656C80.4062 52.2812 79.5938 51.5078 79.0156 50.4453C78.4375 49.3672 78.1484 47.9453 78.1484 46.1797V21.4062ZM100.062 32.8203V53H93.8741V27.6406H99.7334L100.062 32.8203ZM107.772 27.4766L107.679 33.2422C107.335 33.1797 106.944 33.1328 106.507 33.1016C106.085 33.0703 105.687 33.0547 105.312 33.0547C104.358 33.0547 103.522 33.1875 102.804 33.4531C102.085 33.7031 101.483 34.0703 100.999 34.5547C100.53 35.0391 100.171 35.6328 99.9209 36.3359C99.6709 37.0234 99.5303 37.8047 99.4991 38.6797L98.1631 38.5156C98.1631 36.9062 98.3272 35.4141 98.6553 34.0391C98.9834 32.6641 99.46 31.4609 100.085 30.4297C100.71 29.3984 101.491 28.6016 102.429 28.0391C103.382 27.4609 104.476 27.1719 105.71 27.1719C106.054 27.1719 106.421 27.2031 106.812 27.2656C107.218 27.3125 107.538 27.3828 107.772 27.4766ZM110.373 40.5781V40.0859C110.373 38.2266 110.639 36.5156 111.17 34.9531C111.701 33.375 112.475 32.0078 113.49 30.8516C114.506 29.6953 115.748 28.7969 117.217 28.1562C118.686 27.5 120.357 27.1719 122.232 27.1719C124.139 27.1719 125.826 27.5 127.295 28.1562C128.779 28.7969 130.029 29.6953 131.045 30.8516C132.061 32.0078 132.834 33.375 133.365 34.9531C133.897 36.5156 134.162 38.2266 134.162 40.0859V40.5781C134.162 42.4219 133.897 44.1328 133.365 45.7109C132.834 47.2734 132.061 48.6406 131.045 49.8125C130.029 50.9688 128.787 51.8672 127.318 52.5078C125.85 53.1484 124.17 53.4688 122.279 53.4688C120.404 53.4688 118.725 53.1484 117.24 52.5078C115.756 51.8672 114.506 50.9688 113.49 49.8125C112.475 48.6406 111.701 47.2734 111.17 45.7109C110.639 44.1328 110.373 42.4219 110.373 40.5781ZM116.561 40.0859V40.5781C116.561 41.6875 116.67 42.7266 116.889 43.6953C117.107 44.6641 117.443 45.5156 117.897 46.25C118.35 46.9844 118.936 47.5625 119.654 47.9844C120.389 48.3906 121.264 48.5938 122.279 48.5938C123.279 48.5938 124.139 48.3906 124.857 47.9844C125.576 47.5625 126.162 46.9844 126.615 46.25C127.084 45.5156 127.428 44.6641 127.647 43.6953C127.865 42.7266 127.975 41.6875 127.975 40.5781V40.0859C127.975 38.9922 127.865 37.9688 127.647 37.0156C127.428 36.0469 127.084 35.1953 126.615 34.4609C126.162 33.7109 125.568 33.125 124.834 32.7031C124.115 32.2656 123.248 32.0469 122.232 32.0469C121.232 32.0469 120.373 32.2656 119.654 32.7031C118.936 33.125 118.35 33.7109 117.897 34.4609C117.443 35.1953 117.107 36.0469 116.889 37.0156C116.67 37.9688 116.561 38.9922 116.561 40.0859ZM145.81 32.5156V62.75H139.599V27.6406H145.341L145.81 32.5156ZM162.099 40.0625V40.5547C162.099 42.3984 161.88 44.1094 161.443 45.6875C161.021 47.25 160.396 48.6172 159.568 49.7891C158.739 50.9453 157.708 51.8516 156.474 52.5078C155.255 53.1484 153.849 53.4688 152.255 53.4688C150.693 53.4688 149.333 53.1719 148.177 52.5781C147.021 51.9688 146.044 51.1094 145.247 50C144.45 48.8906 143.81 47.6016 143.325 46.1328C142.857 44.6484 142.505 43.0312 142.271 41.2812V39.7109C142.505 37.8516 142.857 36.1641 143.325 34.6484C143.81 33.1172 144.45 31.7969 145.247 30.6875C146.044 29.5625 147.013 28.6953 148.153 28.0859C149.31 27.4766 150.661 27.1719 152.208 27.1719C153.818 27.1719 155.232 27.4766 156.45 28.0859C157.685 28.6953 158.724 29.5703 159.568 30.7109C160.411 31.8516 161.044 33.2109 161.466 34.7891C161.888 36.3672 162.099 38.125 162.099 40.0625ZM155.888 40.5547V40.0625C155.888 38.9375 155.786 37.8984 155.583 36.9453C155.38 35.9766 155.068 35.1328 154.646 34.4141C154.224 33.6797 153.677 33.1094 153.005 32.7031C152.333 32.2969 151.521 32.0938 150.568 32.0938C149.614 32.0938 148.794 32.25 148.107 32.5625C147.419 32.875 146.857 33.3203 146.419 33.8984C145.982 34.4766 145.638 35.1641 145.388 35.9609C145.153 36.7422 144.997 37.6094 144.919 38.5625V42.4531C145.06 43.6094 145.333 44.6484 145.739 45.5703C146.146 46.4922 146.739 47.2266 147.521 47.7734C148.318 48.3203 149.349 48.5938 150.614 48.5938C151.568 48.5938 152.38 48.3828 153.052 47.9609C153.724 47.5391 154.271 46.9609 154.693 46.2266C155.114 45.4766 155.419 44.6172 155.607 43.6484C155.794 42.6797 155.888 41.6484 155.888 40.5547ZM174.731 50.1875L181.527 27.6406H188.16L177.988 56.8438C177.754 57.4688 177.449 58.1484 177.074 58.8828C176.715 59.6172 176.231 60.3125 175.621 60.9688C175.012 61.6406 174.246 62.1875 173.324 62.6094C172.418 63.0312 171.317 63.2422 170.02 63.2422C169.457 63.2422 168.957 63.2031 168.52 63.125C168.082 63.0469 167.621 62.9453 167.137 62.8203V58.1797C167.293 58.1953 167.473 58.2031 167.676 58.2031C167.895 58.2188 168.082 58.2266 168.238 58.2266C169.145 58.2266 169.895 58.1172 170.488 57.8984C171.082 57.6953 171.559 57.3594 171.918 56.8906C172.293 56.4375 172.606 55.8438 172.856 55.1094L174.731 50.1875ZM171.379 27.6406L177.121 46.3203L178.129 52.8594L173.863 53.6328L164.699 27.6406H171.379Z" fill="#ffffff"/>
</svg>
